<svg width="37" height="40" viewBox="0 0 37 40" fill="none" xmlns="http://www.w3.org/2000/svg">
<path d="M36.5 20C36.5 30.807 28.4051 39.5 18.5 39.5C8.59486 39.5 0.5 30.807 0.5 20C0.5 9.19303 8.59486 0.5 18.5 0.5C28.4051 0.5 36.5 9.19303 36.5 20Z" fill="#FF0000" stroke="#A00000"/>
<path d="M20.2145 17.6047C20.0264 17.9055 19.6092 18.1328 18.8713 18.1851C18.1464 18.2366 17.2162 18.108 16.1817 17.8164C14.115 17.2339 11.7548 16.0363 10.0106 14.5685C8.23328 13.0727 7.2569 11.4415 7.55729 9.98386C7.85636 8.53268 9.49185 6.9147 13.8266 5.62562C18.1661 4.33514 20.7954 4.27835 22.295 4.85279C23.0238 5.13197 23.4824 5.5586 23.7613 6.07726C24.046 6.60654 24.1638 7.27059 24.1342 8.04613C24.0746 9.60852 23.4234 11.4861 22.6038 13.2559C21.7899 15.0136 20.8351 16.6125 20.2145 17.6047Z" fill="white" fill-opacity="0.38" stroke="#A00000"/>
<path d="M18.2327 21.6843C18.46 21.4119 18.9042 21.2434 19.6423 21.2918C20.3676 21.3394 21.2716 21.5932 22.2568 22.0227C24.2252 22.8807 26.4007 24.388 27.9292 26.0793C29.4868 27.8027 30.2323 29.5516 29.7366 30.9548C29.2431 32.3519 27.4029 33.7326 22.9331 34.4205C18.4585 35.1091 15.8459 34.808 14.4383 34.0351C13.7542 33.6594 13.3578 33.1744 13.152 32.6227C12.9419 32.0596 12.9155 31.3857 13.0502 30.6214C13.3216 29.0816 14.222 27.31 15.2745 25.668C16.3198 24.0372 17.483 22.5829 18.2327 21.6843Z" fill="white" fill-opacity="0.38" stroke="#A00000"/>
<path d="M13.0032 22.4438C12.8096 24.1541 12.3191 25.5987 11.6704 26.687C11.0185 27.7807 10.2263 28.4846 9.44299 28.7761C8.68324 29.0588 7.88848 28.9724 7.12668 28.3995C6.34383 27.8107 5.57029 26.6851 4.97577 24.8462C4.40765 23.089 4.70193 21.7081 5.39736 20.7044C6.10424 19.6842 7.26057 19.0047 8.48651 18.7444C9.71719 18.4831 10.947 18.658 11.8034 19.2496C12.6294 19.8203 13.1856 20.8312 13.0032 22.4438Z" fill="white" fill-opacity="0.38" stroke="#A00000"/>
<path d="M30.9865 20.0269C29.8358 20.2473 28.7018 20.413 27.7303 20.408C26.7398 20.4029 26.0262 20.2197 25.6131 19.8522C25.2405 19.5207 24.9988 18.9301 25.2243 17.7863C25.452 16.6317 26.1429 15.0112 27.5072 12.7787C28.1762 11.6839 28.7834 11.0157 29.3069 10.6519C29.8193 10.2958 30.2264 10.2456 30.5515 10.3301C30.8947 10.4194 31.2459 10.6848 31.5775 11.1502C31.9068 11.6124 32.1884 12.2337 32.4009 12.9519C32.8267 14.3914 32.948 16.1281 32.6915 17.5384C32.427 18.9925 31.8176 19.8676 30.9865 20.0269Z" fill="white" fill-opacity="0.38" stroke="#A00000"/>
</svg>
