<svg width="64" height="64" viewBox="0 0 64 64" fill="none" xmlns="http://www.w3.org/2000/svg">
<path d="M42.2795 51.5612C14.2795 72.5613 -0.720528 22.0612 23.3345 11.7638C47.3895 1.46645 70.2795 30.5612 42.2795 51.5612Z" fill="white" fill-opacity="0.38"/>
<path d="M41.1013 48.512C35.0028 53.0779 29.6912 53.6804 25.4739 52.0164C21.2275 50.3409 17.9616 46.3182 16.0885 41.3778C14.2175 36.4429 13.7656 30.6622 15.0835 25.5736C16.3991 20.4938 19.4677 16.1301 24.6283 13.9366C35.0653 9.5003 45.2403 13.635 49.7857 21.0937C52.0566 24.8201 52.9276 29.3821 51.7241 34.1467C50.5202 38.9133 47.2289 43.9242 41.1013 48.512Z" stroke="white"/>
<path d="M38.4436 43.6104C34.0084 46.9537 30.2134 47.426 27.2474 46.2986C24.2552 45.1612 21.9685 42.3451 20.6822 38.8337C19.398 35.3279 19.1399 31.199 20.1422 27.5464C21.1423 23.902 23.3871 20.7568 27.0986 19.1349C34.6321 15.8428 41.849 18.6907 45.0015 23.9382C46.5771 26.5608 47.1486 29.7964 46.2344 33.2073C45.3194 36.6211 42.9049 40.2472 38.4436 43.6104Z" stroke="white"/>
<path d="M35.446 37.6593C33.27 39.2829 31.4227 39.4488 29.9835 38.8707C28.5138 38.2803 27.3431 36.8648 26.6555 35.0807C25.9699 33.3019 25.7939 31.2263 26.249 29.4153C26.7018 27.6134 27.7685 26.1007 29.5591 25.3503C33.259 23.7998 36.8712 25.3028 38.4958 27.9503C39.3057 29.2701 39.6238 30.8766 39.2139 32.5507C38.8036 34.2262 37.6526 36.0131 35.446 37.6593Z" stroke="white"/>
</svg>
