<svg width="72" height="75" viewBox="0 0 72 75" fill="none" xmlns="http://www.w3.org/2000/svg">
<path d="M34.3046 68.5709C43.3914 66.8293 48.3964 59.7917 54.2096 44.6446C57.6237 35.7488 63.0514 30.9686 60.6639 23.8426C54.1838 4.50049 17.3222 -1.86411 13.3154 15.5369C11.7786 22.2111 13.6116 26.6051 16.5505 32.96C23.4456 47.87 27.159 69.9404 34.3046 68.5709Z" fill="#8B2A00" stroke="#671F00"/>
<path d="M53.5877 25.3651C54.2089 24.7551 54.7158 24.3381 55.1193 24.0801C55.5391 23.8116 55.7785 23.76 55.8816 23.7652C55.9168 23.767 55.9265 23.7745 55.9313 23.7783L55.9317 23.7785C55.9418 23.7863 55.9726 23.8147 56.0074 23.8949C56.0821 24.0673 56.1299 24.3727 56.1113 24.8387C56.0747 25.7569 55.7927 27.085 55.3121 28.6837C54.8341 30.274 54.1687 32.1027 53.3835 34.0108C51.8124 37.8291 49.7724 41.9404 47.8201 45.0664C46.8426 46.6316 45.8977 47.9324 45.055 48.8242C44.6332 49.2707 44.2509 49.5995 43.9167 49.8083C43.5755 50.0216 43.3363 50.0774 43.1844 50.066C42.721 50.0314 42.3971 49.8369 42.1614 49.494C41.9092 49.1272 41.7423 48.5633 41.7033 47.7906C41.6255 46.2478 42.0663 44.0691 42.9947 41.547C44.8467 36.5156 48.5757 30.2865 53.5877 25.3651Z" fill="white" fill-opacity="0.38" stroke="#671F00"/>
</svg>
