<svg width="25" height="14" viewBox="0 0 25 14" fill="none" xmlns="http://www.w3.org/2000/svg">
<path d="M24.5 6C24.5 7.35467 23.3393 8.7278 21.1225 9.79188C18.9417 10.8387 15.8937 11.5 12.5 11.5C10.713 11.5 9.02047 11.8559 7.52485 12.1918C7.41695 12.2161 7.31033 12.2401 7.20497 12.2639C5.8199 12.5765 4.65317 12.8397 3.67497 12.8127C3.16195 12.7985 2.73193 12.7037 2.36983 12.5108C2.01238 12.3205 1.69065 12.0185 1.41591 11.5401C0.851898 10.5578 0.5 8.8575 0.5 6C0.5 4.64533 1.66069 3.2722 3.87753 2.20812C6.05835 1.16133 9.10626 0.5 12.5 0.5C15.8937 0.5 18.9417 1.16133 21.1225 2.20812C23.3393 3.2722 24.5 4.64533 24.5 6Z" fill="#36851B" stroke="#237507"/>
</svg>
