<svg width="55" height="55" viewBox="0 0 55 55" fill="none" xmlns="http://www.w3.org/2000/svg">
<path d="M27.9828 51.3273C25.0248 50.5969 21.8051 47.5801 19.0155 43.2837C16.2434 39.0144 13.9657 33.5873 12.8443 28.2152C11.7206 22.8326 11.7712 17.5735 13.5727 13.5974C15.3533 9.66743 18.8736 6.92228 24.8908 6.57057C27.8974 6.39483 30.361 7.00526 32.3598 8.18024C34.361 9.35664 35.9262 11.1166 37.1047 13.2847C39.4685 17.6335 40.2515 23.5817 39.8709 29.5348C39.4906 35.4824 37.9533 41.3614 35.7496 45.5421C34.647 47.6341 33.3939 49.2695 32.0647 50.2841C30.7457 51.2909 29.3767 51.6714 27.9828 51.3273Z" fill="white" stroke="#C4C4C4"/>
<path d="M36.5 24C36.5 29.224 32.0461 33.5 26.5 33.5C20.9539 33.5 16.5 29.224 16.5 24C16.5 18.776 20.9539 14.5 26.5 14.5C32.0461 14.5 36.5 18.776 36.5 24Z" fill="#FFDB1D" stroke="#C4C4C4"/>
</svg>
