<svg width="49" height="63" viewBox="0 0 49 63" fill="none" xmlns="http://www.w3.org/2000/svg">
<path d="M26.3177 1.02621C13.8045 0.113619 17.2449 23.2119 2.91942 41.6999C-4.72862 51.5702 12.4698 55.2578 19.6325 44.7813C26.7952 34.3047 16.3885 59.0014 22.0201 61.4205C33.6024 66.3959 51.7164 38.1145 47.3284 23.2119C44.0622 12.1191 35.868 1.72272 26.3177 1.02621Z" fill="#8B2A00" stroke="#671F00"/>
<path d="M10.3814 45.7582C8.54588 46.6198 7.14684 46.8633 6.19696 46.6814C5.2749 46.5049 4.78449 45.9371 4.65641 45.0983C4.52107 44.2119 4.77505 42.921 5.58247 41.2874C6.38408 39.6655 7.70288 37.7658 9.60221 35.7039C11.4852 33.6596 12.8066 33.2554 13.6265 33.5303C14.4561 33.8084 15.0248 34.8645 15.1554 36.4485C15.4166 39.6155 13.8578 44.1263 10.3814 45.7582Z" fill="white" fill-opacity="0.38" stroke="#671F00"/>
<path d="M28.3347 55.0352C26.6367 56.2975 25.2835 56.8537 24.3169 56.8867C23.3777 56.9189 22.8368 56.4667 22.6069 55.6979C22.3593 54.8702 22.4322 53.5487 23.0108 51.7525C23.5842 49.9728 24.6306 47.8034 26.2275 45.3449C27.8138 42.9028 29.0783 42.1916 29.9371 42.2808C30.7838 42.3689 31.4745 43.2665 31.8123 44.7834C32.4874 47.8156 31.5735 52.6273 28.3347 55.0352Z" fill="white" fill-opacity="0.38" stroke="#671F00"/>
</svg>
