<svg width="56" height="55" viewBox="0 0 56 55" fill="none" xmlns="http://www.w3.org/2000/svg">
<path fill-rule="evenodd" clip-rule="evenodd" d="M3.96429 46.654C-7.28934 40.3862 16.7177 21.1826 22.4643 9.65404C27.8798 -1.21033 27.7117 0.114468 39.4643 3.15405C50.2115 5.93359 47.4755 16.564 47.9643 27.654C48.4531 38.7458 61.1056 48.1352 50.9643 52.654C43.1166 56.1509 11.4702 50.8345 3.96429 46.654ZM25.9643 20.154C22.8367 27.2306 4.00856 38.2155 9.96429 43.154C14.9608 47.2972 18.9643 39.154 36.9643 46.654C54.9643 54.154 42.6166 39.6124 41.4643 31.654C40.414 24.4002 44.1682 12.505 36.9643 11.154C29.1309 9.68502 29.1861 12.8643 25.9643 20.154Z" fill="#FF0000" stroke="#A00000"/>
</svg>
