<svg width="50" height="47" viewBox="0 0 50 47" fill="none" xmlns="http://www.w3.org/2000/svg">
<path d="M21.5 23.5L21.6819 23.9657L22.0649 23.8162L21.9921 23.4115L21.5 23.5ZM21.5 23.5C21.9921 23.4115 21.9921 23.4114 21.992 23.4112L21.9919 23.4104L21.9914 23.4079L21.9897 23.3983L21.983 23.362C21.9771 23.3303 21.9684 23.2837 21.9568 23.2234C21.9336 23.1027 21.8989 22.9268 21.853 22.7044C21.761 22.2598 21.6236 21.6287 21.4413 20.8804C21.077 19.3861 20.5311 17.415 19.8064 15.5261C19.0865 13.6497 18.1705 11.8007 17.0447 10.593C16.4785 9.98569 15.8335 9.51234 15.1049 9.3001C14.3621 9.08369 13.5774 9.15228 12.7764 9.55279C10.1853 10.8484 8.35391 12.6741 7.17779 15.0264C6.00661 17.3687 5.5 20.2029 5.5 23.5C5.5 24.3739 5.78474 25.0763 6.31673 25.5957C6.83538 26.102 7.54534 26.392 8.32605 26.5444C9.87855 26.8475 11.8955 26.6415 13.8458 26.2607C15.8109 25.8769 17.7696 25.3029 19.2329 24.8267C19.9655 24.5882 20.5763 24.3736 21.0044 24.2183C21.2186 24.1407 21.3871 24.0778 21.5025 24.0343C21.5602 24.0125 21.6047 23.9955 21.6349 23.9839L21.6694 23.9706L21.6784 23.9671L21.6809 23.9661L21.6816 23.9659C21.6817 23.9658 21.6819 23.9657 21.5 23.5ZM21 30L21.4341 29.7519L21.2902 29.5H21V30ZM21 30C21.4341 29.7519 21.4342 29.752 21.4342 29.7521L21.4344 29.7525L21.4351 29.7537L21.4376 29.758L21.4467 29.7741L21.481 29.8351C21.5107 29.8884 21.5538 29.9661 21.608 30.0654C21.7162 30.264 21.8687 30.5492 22.0467 30.8974C22.4023 31.5928 22.8623 32.5441 23.2757 33.5618C23.6874 34.5752 24.0617 35.6755 24.2347 36.6638C24.4013 37.6155 24.4105 38.6193 23.9 39.3C23.6432 39.6424 23.2251 39.9276 22.7502 40.1576C22.2649 40.3926 21.6748 40.5918 21.0249 40.7395C19.7264 41.0346 18.1444 41.1345 16.6039 40.8732C15.0634 40.6119 13.5316 39.983 12.3822 38.7903C11.2243 37.5889 10.5 35.8623 10.5 33.5C10.5 32.3425 11.3363 31.5556 12.3301 31.0339C13.3363 30.5056 14.6466 30.1667 15.9138 29.945C17.1893 29.7218 18.4599 29.6109 19.4084 29.5555C19.8835 29.5278 20.2797 29.5139 20.5578 29.507C20.6969 29.5035 20.8066 29.5018 20.8819 29.5009C20.9195 29.5005 20.9486 29.5002 20.9685 29.5001L20.9914 29.5L20.9975 29.5L20.9992 29.5H20.9997C20.9999 29.5 21 29.5 21 30ZM27 28.5L26.7358 28.0755L26.4713 28.2401L26.5025 28.5501L27 28.5ZM27 28.5C26.7358 28.0755 26.7359 28.0754 26.7361 28.0753L26.7368 28.0749L26.739 28.0735L26.7471 28.0685L26.7776 28.0497C26.8043 28.0334 26.8435 28.0095 26.8945 27.9788C26.9964 27.9174 27.1454 27.8288 27.3356 27.7186C27.716 27.4982 28.2616 27.1912 28.9254 26.8434C30.2509 26.1487 32.057 25.2859 33.9644 24.6242C35.8624 23.9659 37.9066 23.4902 39.6933 23.6098C41.5038 23.731 43.1063 24.4742 43.9531 26.2885C45.5098 29.6238 44.697 33.078 42.5427 35.6675C40.394 38.2503 36.8971 40 33 40C31.5637 40 30.4464 39.186 29.6016 38.0858C28.7593 36.9889 28.1409 35.5518 27.6892 34.1537C27.2355 32.7492 26.9395 31.3498 26.7568 30.3048C26.6654 29.7814 26.602 29.3449 26.5614 29.0383C26.5411 28.8849 26.5265 28.764 26.5169 28.6809C26.5121 28.6393 26.5086 28.6072 26.5062 28.5851L26.5035 28.5598L26.5028 28.5529L26.5026 28.551L26.5025 28.5504C26.5025 28.5502 26.5025 28.5501 27 28.5ZM27 22L26.5945 22.2925L26.7909 22.5648L27.1173 22.486L27 22ZM27 22C27.1173 22.486 27.1175 22.486 27.1177 22.486L27.1183 22.4858L27.1206 22.4852L27.1292 22.4832L27.1617 22.4752C27.19 22.4682 27.2316 22.4578 27.2855 22.4441C27.3932 22.4167 27.5502 22.3761 27.7489 22.3227C28.1461 22.216 28.7103 22.0582 29.3806 21.8531C30.7195 21.4436 32.4904 20.8431 34.2031 20.0819C35.9061 19.325 37.5948 18.3907 38.7362 17.2988C39.8796 16.2052 40.5749 14.8409 39.9642 13.3143C38.4903 9.62955 36.1632 7.01301 33.439 5.78376C30.6992 4.54749 27.6159 4.74271 24.7316 6.57817C23.0595 7.64221 22.3671 9.22297 22.2637 10.9362C22.1617 12.6258 22.6281 14.4583 23.2668 16.1215C23.9083 17.792 24.74 19.3333 25.4082 20.4533C25.7429 21.0143 26.038 21.4721 26.25 21.7904C26.3561 21.9496 26.4414 22.074 26.5006 22.1592C26.5302 22.2018 26.5533 22.2345 26.5691 22.2569L26.5874 22.2827L26.5924 22.2896L26.5938 22.2915L26.5942 22.2921C26.5944 22.2923 26.5945 22.2925 27 22ZM49.5 23.5C49.5 36.1739 38.5606 46.5 25 46.5C11.4394 46.5 0.5 36.1739 0.5 23.5C0.5 10.8261 11.4394 0.5 25 0.5C38.5606 0.5 49.5 10.8261 49.5 23.5Z" fill="#FF0000" stroke="#A00000"/>
</svg>
