<svg width="43" height="24" viewBox="0 0 43 24" fill="none" xmlns="http://www.w3.org/2000/svg">
<path d="M42.5 19.3012C42.5 21.9268 41.8995 22.9477 41.1184 23.3072C40.7011 23.4992 40.1502 23.5487 39.432 23.4517C38.7161 23.3551 37.8818 23.1199 36.9286 22.7929C36.1498 22.5257 35.2989 22.1984 34.386 21.8472C30.8827 20.4997 26.4668 18.8012 21.7168 18.8012C16.9668 18.8012 12.5508 20.4997 9.04756 21.8472C8.13465 22.1984 7.28371 22.5257 6.50498 22.7929C5.55176 23.1199 4.71743 23.3551 4.0015 23.4517C3.2833 23.5487 2.73244 23.4992 2.31509 23.3072C1.534 22.9477 0.93354 21.9268 0.93354 19.3012C0.93354 9.05356 10.1873 0.65834 21.7168 0.65834C33.2462 0.65834 42.5 9.05356 42.5 19.3012Z" fill="#51E01F" stroke="#48BC1F"/>
<path d="M22.926 17.2356C22.1104 17.0805 21.1796 16.2335 20.3633 14.8471C19.5638 13.489 18.9428 11.7255 18.6945 9.95349C18.4453 8.17545 18.5789 6.44643 19.2233 5.12076C19.8529 3.82553 20.993 2.8638 22.895 2.61899C23.8434 2.49692 24.5737 2.64584 25.1355 2.96156C25.6977 3.27752 26.1314 3.78321 26.4489 4.44649C27.0929 5.79208 27.2303 7.73317 26.9784 9.75661C26.7277 11.7692 26.102 13.7794 25.3041 15.2228C24.9044 15.9458 24.4761 16.4998 24.0534 16.8458C23.6336 17.1894 23.2587 17.2989 22.926 17.2356Z" fill="white" fill-opacity="0.38" stroke="#48BC1F"/>
<path d="M14.9054 18.0179C13.7787 18.2437 12.686 17.8438 11.7224 16.9985C10.7548 16.1498 9.94616 14.8723 9.43261 13.4354C8.3895 10.5168 8.64205 7.24507 10.796 5.65427C11.31 5.27467 11.7913 5.17082 12.242 5.24109C12.7058 5.3134 13.1884 5.5787 13.6703 6.03296C14.6406 6.94754 15.5036 8.53105 16.0727 10.3052C16.6405 12.0754 16.8905 13.9574 16.6994 15.4312C16.507 16.9147 15.9061 17.8173 14.9054 18.0179Z" fill="white" fill-opacity="0.38" stroke="#48BC1F"/>
<path d="M6.69078 19.9712C5.83325 20.1431 4.99543 20.2707 4.28149 20.2669C3.54928 20.2629 3.05217 20.12 2.77551 19.8626C2.53812 19.6416 2.35701 19.2303 2.52091 18.3606C2.68696 17.4795 3.19448 16.2279 4.2108 14.4879C4.70609 13.6399 5.14932 13.1336 5.52153 12.863C5.8827 12.6004 6.15227 12.5743 6.35553 12.6297C6.57682 12.6899 6.81919 12.8738 7.05807 13.2246C7.29466 13.572 7.50034 14.0445 7.65661 14.5972C7.97007 15.7059 8.05881 17.0438 7.87082 18.1253C7.675 19.2518 7.23476 19.8622 6.69078 19.9712Z" fill="white" fill-opacity="0.38" stroke="#48BC1F"/>
<path d="M29.1902 17.58C28.9957 17.4988 28.7836 17.252 28.6486 16.6993C28.5174 16.1627 28.4874 15.441 28.5632 14.6111C28.7146 12.9531 29.2764 10.9858 30.1142 9.45506C30.5329 8.69019 31.0077 8.0579 31.5131 7.62617C32.0156 7.19695 32.524 6.98492 33.0331 6.99758C33.5419 7.01024 34.1386 7.24951 34.8111 7.89799C35.4867 8.54951 36.2139 9.59188 36.9662 11.1471C38.4914 14.3002 38.8716 16.2904 38.6552 17.4915C38.5508 18.0706 38.3099 18.4563 37.9924 18.721C37.6664 18.9929 37.221 19.1687 36.6643 19.2516C35.538 19.4193 34.0942 19.187 32.6884 18.8049C31.2962 18.4264 29.9999 17.9178 29.1902 17.58Z" fill="white" fill-opacity="0.38" stroke="#48BC1F"/>
</svg>
